<?xml version="1.0" encoding="UTF-8"?>
<svg id="Layer_1" xmlns="http://www.w3.org/2000/svg" xmlns:xlink="http://www.w3.org/1999/xlink" viewBox="0 0 330.215 81.166">
  <defs>
    <linearGradient id="linear-gradient" x1="0" y1="31.825" x2="330.215" y2="31.825" gradientUnits="userSpaceOnUse">
      <stop offset="0" stop-color="#1f1147"/>
      <stop offset=".177" stop-color="#1f1249"/>
      <stop offset=".292" stop-color="#201852"/>
      <stop offset=".389" stop-color="#232161"/>
      <stop offset=".476" stop-color="#262f76"/>
      <stop offset=".557" stop-color="#2a4191"/>
      <stop offset=".633" stop-color="#3056b3"/>
      <stop offset=".704" stop-color="#3670da"/>
      <stop offset=".747" stop-color="#3b82f6"/>
      <stop offset=".786" stop-color="#4188f6"/>
      <stop offset=".842" stop-color="#539cf7"/>
      <stop offset=".908" stop-color="#70bbf9"/>
      <stop offset=".981" stop-color="#99e6fb"/>
      <stop offset="1" stop-color="#a5f3fc"/>
    </linearGradient>
    <linearGradient id="linear-gradient-2" x1="0" y1="42.664" x2="330.215" y2="42.664" xlink:href="#linear-gradient"/>
    <linearGradient id="linear-gradient-3" x1="0" y1="43.141" x2="330.215" y2="43.141" xlink:href="#linear-gradient"/>
    <linearGradient id="linear-gradient-4" x1="0" y1="42.275" x2="330.215" y2="42.275" xlink:href="#linear-gradient"/>
    <linearGradient id="linear-gradient-5" x1="0" y1="32.735" x2="330.215" y2="32.735" xlink:href="#linear-gradient"/>
    <linearGradient id="linear-gradient-6" x1="0" y1="32.822" x2="330.215" y2="32.822" xlink:href="#linear-gradient"/>
    <linearGradient id="linear-gradient-7" x2="330.215" xlink:href="#linear-gradient"/>
    <linearGradient id="linear-gradient-8" x1="0" y1="51.466" x2="330.215" y2="51.466" xlink:href="#linear-gradient"/>
  </defs>
  <path d="M0,31.739v-9.973h33.472v9.973H0ZM9.712,63.651V17.256c0-3.352.722-6.314,2.168-8.888,1.444-2.571,3.497-4.61,6.156-6.113,2.659-1.503,5.781-2.255,9.366-2.255,2.717,0,5.058.462,7.024,1.387,1.965.926,3.729,2.198,5.289,3.816l-7.197,7.285c-.637-.635-1.33-1.127-2.081-1.475-.752-.346-1.706-.519-2.862-.519-2.082,0-3.686.563-4.813,1.69s-1.691,2.731-1.691,4.813v46.654h-11.36Z" style="fill: url(#linear-gradient);"/>
  <path d="M58.274,64.517c-4.221,0-8.021-.969-11.403-2.906-3.382-1.935-6.071-4.566-8.065-7.89s-2.991-7.039-2.991-11.143.983-7.791,2.948-11.058c1.965-3.264,4.653-5.866,8.065-7.803,3.41-1.935,7.197-2.906,11.359-2.906,4.277,0,8.109.97,11.491,2.906,3.381,1.937,6.055,4.539,8.021,7.803,1.965,3.267,2.948,6.955,2.948,11.058s-.984,7.819-2.948,11.143c-1.966,3.324-4.64,5.954-8.021,7.89-3.382,1.937-7.184,2.906-11.403,2.906ZM58.187,53.937c2.138,0,4.032-.476,5.68-1.429,1.648-.954,2.919-2.283,3.816-3.991.895-1.704,1.343-3.656,1.343-5.854s-.463-4.132-1.388-5.808c-.925-1.676-2.197-2.992-3.815-3.947-1.619-.954-3.499-1.431-5.637-1.431-2.081,0-3.932.476-5.549,1.431-1.62.954-2.892,2.271-3.815,3.947-.926,1.676-1.388,3.613-1.388,5.808s.461,4.15,1.388,5.854c.924,1.708,2.196,3.036,3.815,3.991,1.618.953,3.469,1.429,5.549,1.429Z" style="fill: url(#linear-gradient-2);"/>
  <path d="M105.794,64.517c-3.701,0-6.98-.782-9.842-2.341-2.862-1.561-5.103-3.73-6.721-6.503-1.619-2.777-2.428-5.984-2.428-9.626v-24.281h11.447v24.02c0,1.734.288,3.225.867,4.467.577,1.242,1.444,2.182,2.601,2.818,1.156.637,2.515.954,4.075.954,2.37,0,4.219-.723,5.55-2.168,1.329-1.445,1.994-3.47,1.994-6.071v-24.02h11.36v24.281c0,3.7-.796,6.937-2.385,9.71-1.59,2.777-3.815,4.929-6.677,6.461s-6.143,2.299-9.843,2.299Z" style="fill: url(#linear-gradient-3);"/>
  <path d="M133.717,63.651V21.766h11.359v41.885h-11.359ZM161.899,63.651v-24.022c0-2.484-.78-4.509-2.341-6.069-1.56-1.561-3.585-2.343-6.07-2.343-1.62,0-3.065.349-4.336,1.041-1.273.695-2.27,1.68-2.992,2.95-.723,1.272-1.084,2.745-1.084,4.421l-4.422-2.255c0-3.296.707-6.17,2.124-8.627,1.417-2.456,3.382-4.379,5.897-5.767,2.515-1.387,5.362-2.08,8.542-2.08,3.064,0,5.81.766,8.238,2.297,2.428,1.531,4.336,3.527,5.723,5.984,1.388,2.456,2.081,5.102,2.081,7.934v26.536h-11.36Z" style="fill: url(#linear-gradient-4);"/>
  <path d="M200.141,64.517c-3.874,0-7.343-.954-10.406-2.862-3.065-1.907-5.478-4.509-7.241-7.803-1.764-3.296-2.645-6.995-2.645-11.101,0-4.164.88-7.892,2.645-11.185,1.762-3.296,4.162-5.898,7.197-7.805,3.035-1.909,6.517-2.862,10.45-2.862,3.005,0,5.708.607,8.108,1.821,2.398,1.214,4.335,2.904,5.81,5.072,1.475,2.168,2.269,4.61,2.385,7.327v14.915c-.116,2.719-.898,5.176-2.341,7.371-1.447,2.198-3.382,3.934-5.811,5.205-2.428,1.27-5.145,1.907-8.15,1.907ZM202.048,54.025c2.138,0,4.002-.476,5.594-1.433,1.59-.953,2.832-2.283,3.728-3.987s1.344-3.687,1.344-5.942c0-2.195-.448-4.146-1.344-5.852-.896-1.704-2.138-3.036-3.728-3.989-1.591-.953-3.425-1.431-5.506-1.431-2.14,0-4.004.492-5.594,1.473-1.59.984-2.833,2.315-3.729,3.991-.897,1.676-1.344,3.613-1.344,5.808,0,2.255.447,4.238,1.344,5.942.895,1.704,2.153,3.035,3.772,3.987,1.618.956,3.439,1.433,5.463,1.433ZM223.381,63.651h-11.274v-11.274l1.821-10.233-1.907-10.06V.953h11.36v62.698Z" style="fill: url(#linear-gradient-5);"/>
  <path d="M239.164,15.001c-1.851,0-3.382-.619-4.596-1.865-1.216-1.242-1.822-2.788-1.822-4.638,0-1.791.607-3.324,1.822-4.596,1.214-1.27,2.745-1.909,4.596-1.909,1.907,0,3.453.639,4.638,1.909,1.184,1.272,1.778,2.805,1.778,4.596,0,1.851-.595,3.396-1.778,4.638-1.186,1.246-2.731,1.865-4.638,1.865ZM233.441,63.651V21.766h11.447v41.885h-11.447Z" style="fill: url(#linear-gradient-6);"/>
  <path d="M250.781,31.739v-9.973h33.473v9.973h-33.473ZM260.494,63.651V17.256c0-3.352.723-6.314,2.168-8.888,1.445-2.571,3.497-4.61,6.157-6.113,2.659-1.503,5.78-2.255,9.365-2.255,2.717,0,5.058.462,7.025,1.387,1.964.926,3.728,2.198,5.289,3.816l-7.198,7.285c-.637-.635-1.33-1.127-2.08-1.475-.753-.346-1.706-.519-2.862-.519-2.082,0-3.686.563-4.813,1.69s-1.692,2.731-1.692,4.813v46.654h-11.36Z" style="fill: url(#linear-gradient-7);"/>
  <path d="M303.506,63.997l-17.517-42.231h12.315l11.619,32.259h-4.162l12.053-32.259h12.401l-18.645,42.231h-8.064ZM291.887,81.166l12.747-26.968,6.937,9.799-7.63,17.17h-12.053Z" style="fill: url(#linear-gradient-8);"/>
</svg>