<svg width="113" height="58" viewBox="0 0 113 58" fill="none" xmlns="http://www.w3.org/2000/svg">
<path d="M0 25.9734V22.5607H11.4542V25.9734H0ZM3.32346 36.8938V21.0173C3.32346 19.8703 3.57053 18.8567 4.06535 17.9758C4.55949 17.096 5.26203 16.3983 6.17194 15.884C7.08185 15.3696 8.15021 15.1123 9.377 15.1123C10.3068 15.1123 11.1079 15.2704 11.7806 15.5869C12.453 15.9038 13.0567 16.3391 13.5905 16.8928L11.1277 19.3857C10.9097 19.1684 10.6726 19.0001 10.4156 18.881C10.1582 18.7626 9.83179 18.7034 9.4362 18.7034C8.72374 18.7034 8.17485 18.896 7.78919 19.2817C7.40352 19.6673 7.21052 20.2162 7.21052 20.9287V36.8938H3.32346Z" fill="url(#paint0_linear_553_81)"/>
<path d="M19.9414 37.1901C18.4969 37.1901 17.1966 36.8585 16.0392 36.1957C14.8819 35.5335 13.9617 34.6332 13.2794 33.4957C12.597 32.3583 12.2559 31.087 12.2559 29.6826C12.2559 28.2782 12.5922 27.0165 13.2647 25.8985C13.9371 24.7816 14.8569 23.8912 16.0245 23.2283C17.1914 22.5662 18.4873 22.2339 19.9116 22.2339C21.3752 22.2339 22.6865 22.5658 23.8438 23.2283C25.0008 23.8912 25.9159 24.7816 26.5886 25.8985C27.261 27.0165 27.5974 28.2785 27.5974 29.6826C27.5974 31.0866 27.2607 32.3583 26.5886 33.4957C25.9159 34.6332 25.0008 35.5332 23.8438 36.1957C22.6865 36.8585 21.3854 37.1901 19.9417 37.1901H19.9414ZM19.9116 33.5696C20.6432 33.5696 21.2913 33.4068 21.8553 33.0806C22.4192 32.7542 22.8542 32.2994 23.1611 31.7149C23.4674 31.1318 23.6207 30.4638 23.6207 29.7117C23.6207 28.9595 23.4623 28.2977 23.1457 27.7242C22.8292 27.1506 22.3939 26.7003 21.8402 26.3735C21.2862 26.047 20.6429 25.8838 19.9112 25.8838C19.1991 25.8838 18.5657 26.0467 18.0124 26.3735C17.458 26.7 17.0227 27.1506 16.7069 27.7242C16.39 28.2977 16.2319 28.9605 16.2319 29.7117C16.2319 30.4628 16.3897 31.1318 16.7069 31.7149C17.0231 32.2994 17.4583 32.7538 18.0124 33.0806C18.5661 33.4068 19.1998 33.5696 19.9116 33.5696Z" fill="url(#paint1_linear_553_81)"/>
<path d="M36.2028 37.19C34.9364 37.19 33.8143 36.9224 32.8349 36.3889C31.8555 35.8547 31.0886 35.1125 30.535 34.1636C29.9809 33.2133 29.7041 32.1158 29.7041 30.8695V22.5605H33.6213V30.7802C33.6213 31.3736 33.7198 31.8838 33.918 32.3088C34.1154 32.7338 34.4121 33.0555 34.808 33.2732C35.2036 33.4911 35.6687 33.5996 36.2025 33.5996C37.0135 33.5996 37.6463 33.3522 38.1017 32.8577C38.5565 32.3632 38.7841 31.6703 38.7841 30.7802V22.5605H42.6715V30.8695C42.6715 32.1357 42.3991 33.2434 41.8553 34.1923C41.3112 35.1426 40.5498 35.879 39.5704 36.4033C38.5911 36.9275 37.4683 37.19 36.2022 37.19H36.2028Z" fill="url(#paint2_linear_553_81)"/>
<path d="M45.7581 36.8936V22.5605H49.6451V36.8936H45.7581ZM55.402 36.8936V28.6732C55.402 27.8232 55.1351 27.1303 54.6009 26.5964C54.067 26.0623 53.3741 25.7947 52.5237 25.7947C51.9694 25.7947 51.4749 25.9141 51.0399 26.1509C50.6043 26.3887 50.2631 26.7258 50.0161 27.1604C49.7687 27.5957 49.6451 28.0997 49.6451 28.6732L48.1319 27.9016C48.1319 26.7737 48.3738 25.7902 48.8587 24.9494C49.3436 24.109 50.0161 23.4509 50.8767 22.9759C51.7373 22.5013 52.7116 22.2642 53.7998 22.2642C54.8483 22.2642 55.788 22.5263 56.6188 23.0502C57.4497 23.5741 58.1026 24.2571 58.5773 25.0979C59.0522 25.9384 59.2894 26.8438 59.2894 27.813V36.8936H55.402Z" fill="url(#paint3_linear_553_81)"/>
<path d="M68.4886 37.1902C67.1629 37.1902 65.9758 36.8637 64.9277 36.2108C63.8788 35.5582 63.0531 34.6678 62.4498 33.5406C61.8462 32.4127 61.5447 31.1469 61.5447 29.7418C61.5447 28.3169 61.8458 27.0412 62.4498 25.9143C63.0528 24.7864 63.874 23.896 64.9126 23.2434C65.9512 22.5901 67.1428 22.264 68.4886 22.264C69.5169 22.264 70.4419 22.4717 71.2632 22.8872C72.0838 23.3026 72.7466 23.8809 73.2514 24.6228C73.7561 25.3647 74.0278 26.2004 74.0675 27.1301V32.2341C74.0278 33.1645 73.7602 34.0053 73.2664 34.7564C72.7713 35.5086 72.1091 36.1026 71.2779 36.5376C70.447 36.9722 69.5169 37.1902 68.4886 37.1902ZM69.1412 33.5998C69.8728 33.5998 70.5107 33.4369 71.0555 33.1094C71.5996 32.7833 72.0246 32.3282 72.3312 31.7451C72.6378 31.1619 72.7911 30.4834 72.7911 29.7117C72.7911 28.9606 72.6378 28.2929 72.3312 27.7091C72.0246 27.126 71.5996 26.6702 71.0555 26.3441C70.511 26.018 69.8834 25.8544 69.1713 25.8544C68.439 25.8544 67.8011 26.0228 67.257 26.3585C66.7129 26.6952 66.2876 27.1507 65.981 27.7242C65.674 28.2977 65.5211 28.9606 65.5211 29.7117C65.5211 30.4834 65.674 31.1619 65.981 31.7451C66.2872 32.3282 66.7177 32.7836 67.2718 33.1094C67.8254 33.4366 68.4486 33.5998 69.1412 33.5998ZM76.4414 36.8938H72.5834V33.0358L73.2066 29.5341L72.554 26.0915V15.4385H76.4414V36.8938Z" fill="url(#paint4_linear_553_81)"/>
<path d="M81.8422 20.2453C81.2088 20.2453 80.6849 20.0335 80.2695 19.6071C79.8534 19.1821 79.646 18.653 79.646 18.02C79.646 17.4071 79.8537 16.8825 80.2695 16.4472C80.6849 16.0126 81.2088 15.7939 81.8422 15.7939C82.4948 15.7939 83.0239 16.0126 83.4294 16.4472C83.8345 16.8825 84.0378 17.4071 84.0378 18.02C84.0378 18.6534 83.8342 19.1821 83.4294 19.6071C83.0235 20.0335 82.4948 20.2453 81.8422 20.2453ZM79.8838 36.8934V22.5603H83.801V36.8934H79.8838Z" fill="url(#paint5_linear_553_81)"/>
<path d="M85.8176 25.9734V22.5607H97.2721V25.9734H85.8176ZM89.1414 36.8938V21.0173C89.1414 19.8703 89.3888 18.8567 89.8833 17.9758C90.3778 17.096 91.08 16.3983 91.9903 15.884C92.9002 15.3696 93.9682 15.1123 95.195 15.1123C96.1247 15.1123 96.9258 15.2704 97.5989 15.5869C98.271 15.9038 98.8747 16.3391 99.4088 16.8928L96.9457 19.3857C96.7277 19.1684 96.4905 19.0001 96.2339 18.881C95.9762 18.7626 95.6501 18.7034 95.2545 18.7034C94.542 18.7034 93.9932 18.896 93.6075 19.2817C93.2218 19.6673 93.0285 20.2162 93.0285 20.9287V36.8938H89.1414Z" fill="url(#paint6_linear_553_81)"/>
<path d="M103.86 37.012L97.8657 22.5605H102.08L106.056 33.5996H104.632L108.756 22.5605H113L106.62 37.012H103.86ZM99.884 42.8873L104.246 33.6588L106.62 37.012L104.009 42.8876H99.8844L99.884 42.8873Z" fill="url(#paint7_linear_553_81)"/>
<defs>
<linearGradient id="paint0_linear_553_81" x1="0" y1="26.0029" x2="113" y2="26.0029" gradientUnits="userSpaceOnUse">
<stop stop-color="#1F1147"/>
<stop offset="0.177" stop-color="#1F1249"/>
<stop offset="0.292" stop-color="#201852"/>
<stop offset="0.389" stop-color="#232161"/>
<stop offset="0.476" stop-color="#262F76"/>
<stop offset="0.557" stop-color="#2A4191"/>
<stop offset="0.633" stop-color="#3056B3"/>
<stop offset="0.704" stop-color="#3670DA"/>
<stop offset="0.747" stop-color="#3B82F6"/>
<stop offset="0.786" stop-color="#4188F6"/>
<stop offset="0.842" stop-color="#539CF7"/>
<stop offset="0.908" stop-color="#70BBF9"/>
<stop offset="0.981" stop-color="#99E6FB"/>
<stop offset="1" stop-color="#A5F3FC"/>
</linearGradient>
<linearGradient id="paint1_linear_553_81" x1="-8.25571e-05" y1="29.712" x2="113" y2="29.712" gradientUnits="userSpaceOnUse">
<stop stop-color="#1F1147"/>
<stop offset="0.177" stop-color="#1F1249"/>
<stop offset="0.292" stop-color="#201852"/>
<stop offset="0.389" stop-color="#232161"/>
<stop offset="0.476" stop-color="#262F76"/>
<stop offset="0.557" stop-color="#2A4191"/>
<stop offset="0.633" stop-color="#3056B3"/>
<stop offset="0.704" stop-color="#3670DA"/>
<stop offset="0.747" stop-color="#3B82F6"/>
<stop offset="0.786" stop-color="#4188F6"/>
<stop offset="0.842" stop-color="#539CF7"/>
<stop offset="0.908" stop-color="#70BBF9"/>
<stop offset="0.981" stop-color="#99E6FB"/>
<stop offset="1" stop-color="#A5F3FC"/>
</linearGradient>
<linearGradient id="paint2_linear_553_81" x1="7.43217e-06" y1="29.8751" x2="113" y2="29.8751" gradientUnits="userSpaceOnUse">
<stop stop-color="#1F1147"/>
<stop offset="0.177" stop-color="#1F1249"/>
<stop offset="0.292" stop-color="#201852"/>
<stop offset="0.389" stop-color="#232161"/>
<stop offset="0.476" stop-color="#262F76"/>
<stop offset="0.557" stop-color="#2A4191"/>
<stop offset="0.633" stop-color="#3056B3"/>
<stop offset="0.704" stop-color="#3670DA"/>
<stop offset="0.747" stop-color="#3B82F6"/>
<stop offset="0.786" stop-color="#4188F6"/>
<stop offset="0.842" stop-color="#539CF7"/>
<stop offset="0.908" stop-color="#70BBF9"/>
<stop offset="0.981" stop-color="#99E6FB"/>
<stop offset="1" stop-color="#A5F3FC"/>
</linearGradient>
<linearGradient id="paint3_linear_553_81" x1="-8.38935e-05" y1="29.5787" x2="113" y2="29.5787" gradientUnits="userSpaceOnUse">
<stop stop-color="#1F1147"/>
<stop offset="0.177" stop-color="#1F1249"/>
<stop offset="0.292" stop-color="#201852"/>
<stop offset="0.389" stop-color="#232161"/>
<stop offset="0.476" stop-color="#262F76"/>
<stop offset="0.557" stop-color="#2A4191"/>
<stop offset="0.633" stop-color="#3056B3"/>
<stop offset="0.704" stop-color="#3670DA"/>
<stop offset="0.747" stop-color="#3B82F6"/>
<stop offset="0.786" stop-color="#4188F6"/>
<stop offset="0.842" stop-color="#539CF7"/>
<stop offset="0.908" stop-color="#70BBF9"/>
<stop offset="0.981" stop-color="#99E6FB"/>
<stop offset="1" stop-color="#A5F3FC"/>
</linearGradient>
<linearGradient id="paint4_linear_553_81" x1="0.000114739" y1="26.3143" x2="113" y2="26.3143" gradientUnits="userSpaceOnUse">
<stop stop-color="#1F1147"/>
<stop offset="0.177" stop-color="#1F1249"/>
<stop offset="0.292" stop-color="#201852"/>
<stop offset="0.389" stop-color="#232161"/>
<stop offset="0.476" stop-color="#262F76"/>
<stop offset="0.557" stop-color="#2A4191"/>
<stop offset="0.633" stop-color="#3056B3"/>
<stop offset="0.704" stop-color="#3670DA"/>
<stop offset="0.747" stop-color="#3B82F6"/>
<stop offset="0.786" stop-color="#4188F6"/>
<stop offset="0.842" stop-color="#539CF7"/>
<stop offset="0.908" stop-color="#70BBF9"/>
<stop offset="0.981" stop-color="#99E6FB"/>
<stop offset="1" stop-color="#A5F3FC"/>
</linearGradient>
<linearGradient id="paint5_linear_553_81" x1="1.43689e-05" y1="26.3437" x2="113" y2="26.3437" gradientUnits="userSpaceOnUse">
<stop stop-color="#1F1147"/>
<stop offset="0.177" stop-color="#1F1249"/>
<stop offset="0.292" stop-color="#201852"/>
<stop offset="0.389" stop-color="#232161"/>
<stop offset="0.476" stop-color="#262F76"/>
<stop offset="0.557" stop-color="#2A4191"/>
<stop offset="0.633" stop-color="#3056B3"/>
<stop offset="0.704" stop-color="#3670DA"/>
<stop offset="0.747" stop-color="#3B82F6"/>
<stop offset="0.786" stop-color="#4188F6"/>
<stop offset="0.842" stop-color="#539CF7"/>
<stop offset="0.908" stop-color="#70BBF9"/>
<stop offset="0.981" stop-color="#99E6FB"/>
<stop offset="1" stop-color="#A5F3FC"/>
</linearGradient>
<linearGradient id="paint6_linear_553_81" x1="8.77553e-05" y1="15.1123" x2="113" y2="15.1123" gradientUnits="userSpaceOnUse">
<stop stop-color="#1F1147"/>
<stop offset="0.177" stop-color="#1F1249"/>
<stop offset="0.292" stop-color="#201852"/>
<stop offset="0.389" stop-color="#232161"/>
<stop offset="0.476" stop-color="#262F76"/>
<stop offset="0.557" stop-color="#2A4191"/>
<stop offset="0.633" stop-color="#3056B3"/>
<stop offset="0.704" stop-color="#3670DA"/>
<stop offset="0.747" stop-color="#3B82F6"/>
<stop offset="0.786" stop-color="#4188F6"/>
<stop offset="0.842" stop-color="#539CF7"/>
<stop offset="0.908" stop-color="#70BBF9"/>
<stop offset="0.981" stop-color="#99E6FB"/>
<stop offset="1" stop-color="#A5F3FC"/>
</linearGradient>
<linearGradient id="paint7_linear_553_81" x1="-4.1581e-05" y1="32.7239" x2="113" y2="32.7239" gradientUnits="userSpaceOnUse">
<stop stop-color="#1F1147"/>
<stop offset="0.177" stop-color="#1F1249"/>
<stop offset="0.292" stop-color="#201852"/>
<stop offset="0.389" stop-color="#232161"/>
<stop offset="0.476" stop-color="#262F76"/>
<stop offset="0.557" stop-color="#2A4191"/>
<stop offset="0.633" stop-color="#3056B3"/>
<stop offset="0.704" stop-color="#3670DA"/>
<stop offset="0.747" stop-color="#3B82F6"/>
<stop offset="0.786" stop-color="#4188F6"/>
<stop offset="0.842" stop-color="#539CF7"/>
<stop offset="0.908" stop-color="#70BBF9"/>
<stop offset="0.981" stop-color="#99E6FB"/>
<stop offset="1" stop-color="#A5F3FC"/>
</linearGradient>
</defs>
</svg>
